<svg width="30" height="30" viewBox="0 0 30 30" fill="none" xmlns="http://www.w3.org/2000/svg">
<path fill-rule="evenodd" clip-rule="evenodd" d="M15.9375 25.2712C18.5396 25.0339 20.9546 23.8176 22.6945 21.8682C24.4343 19.9188 25.3694 17.3816 25.3106 14.7694C25.2518 12.1571 24.2036 9.66457 22.3778 7.79541C20.552 5.92625 18.0847 4.81985 15.4746 4.69978C12.8644 4.57972 10.306 5.45494 8.31629 7.14858C6.3266 8.84223 5.05399 11.228 4.75564 13.8238C4.45728 16.4197 5.15542 19.032 6.70898 21.1329C8.26253 23.2338 10.5557 24.6666 13.125 25.1419V18.2812H10.7812C10.4083 18.2812 10.0506 18.1331 9.78688 17.8694C9.52316 17.6056 9.375 17.248 9.375 16.875C9.375 16.502 9.52316 16.1444 9.78688 15.8806C10.0506 15.6169 10.4083 15.4688 10.7812 15.4688H13.125V13.575C13.125 11.9175 13.6163 10.635 14.4788 9.765C15.3413 8.895 16.5806 8.4375 18.0825 8.4375C18.5944 8.4375 19.23 8.5125 19.86 8.83687C20.1827 9.01221 20.4241 9.30686 20.5324 9.65781C20.6407 10.0088 20.6074 10.3882 20.4397 10.7149C20.2719 11.0416 19.9829 11.2898 19.6346 11.4062C19.2863 11.5227 18.9062 11.4983 18.5756 11.3381C18.4206 11.2701 18.2515 11.2399 18.0825 11.25C17.1581 11.25 16.7006 11.52 16.4756 11.7469C16.2506 11.9719 15.9375 12.4781 15.9375 13.575V15.4688H18.2812C18.6542 15.4688 19.0119 15.6169 19.2756 15.8806C19.5393 16.1444 19.6875 16.502 19.6875 16.875C19.6875 17.248 19.5393 17.6056 19.2756 17.8694C19.0119 18.1331 18.6542 18.2812 18.2812 18.2812H15.9375V25.2712ZM15 28.125C18.481 28.125 21.8194 26.7422 24.2808 24.2808C26.7422 21.8194 28.125 18.481 28.125 15C28.125 11.519 26.7422 8.18064 24.2808 5.71922C21.8194 3.25781 18.481 1.875 15 1.875C11.519 1.875 8.18064 3.25781 5.71922 5.71922C3.25781 8.18064 1.875 11.519 1.875 15C1.875 18.481 3.25781 21.8194 5.71922 24.2808C8.18064 26.7422 11.519 28.125 15 28.125Z" fill="#2797FF"/>
</svg>
