<svg width="30" height="30" viewBox="0 0 30 30" fill="none" xmlns="http://www.w3.org/2000/svg">
<g clip-path="url(#clip0_5706_7103)">
<path fill-rule="evenodd" clip-rule="evenodd" d="M27.3002 7.57003C27.3547 7.23918 27.3195 6.89976 27.1983 6.58713C27.077 6.27451 26.8742 6.00012 26.6108 5.79255C26.3475 5.58499 26.0333 5.45184 25.701 5.40699C25.3687 5.36213 25.0304 5.40722 24.7215 5.53753L3.34647 14.5375C1.85647 15.165 1.78022 17.32 3.34647 17.97C4.89736 18.6168 6.47087 19.208 8.06397 19.7425C9.52397 20.225 11.1165 20.6713 12.3927 20.7975C12.7415 21.215 13.1802 21.6175 13.6277 21.985C14.3115 22.5475 15.134 23.1263 15.984 23.6813C17.6865 24.7938 19.5752 25.8575 20.8477 26.55C22.369 27.375 24.1902 26.425 24.4627 24.7663L27.3002 7.57003ZM5.74272 16.2413L24.6477 8.28128L22.0002 24.3313C20.7515 23.6525 18.9527 22.6363 17.3502 21.5888C16.6116 21.1146 15.8986 20.6018 15.214 20.0525C15.031 19.9031 14.8534 19.7471 14.6815 19.585L19.6327 14.635C19.8673 14.4007 19.9991 14.0827 19.9992 13.7511C19.9993 13.4195 19.8677 13.1015 19.6333 12.8669C19.399 12.6324 19.081 12.5005 18.7494 12.5004C18.4178 12.5003 18.0998 12.6319 17.8652 12.8663L12.444 18.2875C11.5265 18.17 10.249 17.83 8.84647 17.3675C7.80234 17.0197 6.76779 16.6437 5.74397 16.24L5.74272 16.2413Z" fill="#2797FF"/>
</g>
<defs>
<clipPath id="clip0_5706_7103">
<rect width="30" height="30" fill="white"/>
</clipPath>
</defs>
</svg>
